<svg xmlns="http://www.w3.org/2000/svg" width="88" height="44" viewBox="0 0 88 44" role="img" aria-label="BLOG">
  <rect x="0.75" y="0.75" width="86.5" height="42.5" rx="21.25" fill="none" stroke="#ff4b00" stroke-width="1.5"/>
  <path d="M30.1 26.7L27.2 26.7L27.2 17.2L30 17.2Q31.3 17.2 32.1 17.8Q32.8 18.5 32.8 19.6L32.8 19.6Q32.8 20.3 32.6 20.8Q32.3 21.2 31.8 21.5Q31.3 21.8 30.6 21.8L30.6 21.8L30.6 21.6Q31.4 21.6 31.9 21.9Q32.4 22.2 32.8 22.7Q33.1 23.3 33.1 24L33.1 24Q33.1 24.8 32.7 25.4Q32.4 26 31.7 26.4Q31 26.7 30.1 26.7L30.1 26.7M28.5 22.3L28.5 25.5L30 25.5Q30.8 25.5 31.2 25.1Q31.7 24.7 31.7 23.9L31.7 23.9Q31.7 23.2 31.2 22.8Q30.8 22.3 30 22.3L30 22.3L28.5 22.3M28.5 18.4L28.5 21.2L29.9 21.2Q30.6 21.2 31.1 20.8Q31.5 20.4 31.5 19.8L31.5 19.8Q31.5 19.1 31.1 18.8Q30.6 18.4 30 18.4L30 18.4L28.5 18.4M42.4 26.7L36.8 26.7L36.8 17.2L38.2 17.2L38.2 25.4L42.4 25.4L42.4 26.7M48.7 26.8L48.7 26.8Q47.8 26.8 47.2 26.5Q46.5 26.1 46.2 25.5Q45.8 24.9 45.8 24L45.8 24L45.8 19.8Q45.8 19 46.2 18.3Q46.5 17.7 47.2 17.4Q47.8 17.1 48.7 17.1L48.7 17.1Q49.6 17.1 50.2 17.4Q50.9 17.7 51.2 18.3Q51.5 19 51.5 19.8L51.5 19.8L51.5 24Q51.5 24.9 51.2 25.5Q50.9 26.1 50.2 26.5Q49.6 26.8 48.7 26.8M48.7 25.6L48.7 25.6Q49.4 25.6 49.8 25.2Q50.1 24.8 50.1 24L50.1 24L50.1 19.8Q50.1 19.1 49.8 18.7Q49.4 18.3 48.7 18.3L48.7 18.3Q48 18.3 47.6 18.7Q47.2 19.1 47.2 19.8L47.2 19.8L47.2 24Q47.2 24.8 47.6 25.2Q48 25.6 48.7 25.6M58.1 26.8L58.1 26.8Q57.2 26.8 56.6 26.5Q55.9 26.1 55.5 25.5Q55.2 24.9 55.2 24L55.2 24L55.2 19.8Q55.2 19 55.5 18.3Q55.9 17.7 56.6 17.4Q57.2 17.1 58.1 17.1L58.1 17.1Q59 17.1 59.6 17.4Q60.3 17.7 60.6 18.4Q61 19 61 19.8L61 19.8L59.6 19.8Q59.6 19.1 59.2 18.7Q58.8 18.3 58.1 18.3L58.1 18.3Q57.4 18.3 57 18.7Q56.6 19.1 56.6 19.8L56.6 19.8L56.6 24Q56.6 24.8 57 25.2Q57.4 25.6 58.1 25.6L58.1 25.6Q58.8 25.6 59.2 25.2Q59.6 24.8 59.6 24L59.6 24L59.6 23L57.8 23L57.8 21.7L61 21.7L61 24Q61 24.9 60.6 25.5Q60.3 26.1 59.6 26.5Q59 26.8 58.1 26.8" fill="#ff4b00"/>
</svg>
